<svg width="247" height="247" viewBox="0 0 247 247" fill="none" xmlns="http://www.w3.org/2000/svg">
<g clip-path="url(#clip0_15192_145)">
<path fill-rule="evenodd" clip-rule="evenodd" d="M191.637 0.567383H55.5533C54.4979 0.567383 53.4424 0.567383 52.4823 0.759013C42.6934 1.23956 33.0972 4.50219 24.9416 10.0673C16.9757 15.4418 10.5457 23.0235 6.41929 31.6607C2.86774 38.9544 1.1411 47.0157 1.33273 55.1732V191.643C1.33273 199.895 3.15567 208.148 6.80255 215.538C11.0253 224.176 17.5515 231.661 25.5165 237.035C33.674 242.505 43.3666 245.673 53.1555 246.152C55.1701 246.248 188.951 246.248 191.542 246.248C197.396 246.248 203.154 245.481 208.72 243.753C217.837 240.874 226.282 235.499 232.712 228.302C239.238 221.105 243.749 212.179 245.668 202.679C246.532 198.551 246.724 194.233 246.724 190.01V57.2851C246.724 53.7345 246.628 50.183 246.052 46.6324C244.612 37.0351 240.486 27.8221 234.247 20.3368C228.105 12.8514 219.949 7.09265 210.927 3.83001C204.689 1.62282 198.259 0.567383 191.637 0.567383ZM194.62 152.87C194.62 152.87 220.819 92.1221 139.822 37.0356C139.822 37.0356 172.931 78.7826 156.041 125.615C156.041 125.615 96.5399 83.2923 66.5974 52.9665C66.5974 52.9665 104.025 106.901 117.365 117.937C117.365 117.937 95.004 106.324 43.2764 62.2749C43.2764 62.2749 102.681 139.817 130.608 156.036C130.608 156.036 88.2861 184.923 26.29 144.137C26.29 144.137 58.8231 201.622 127.633 201.622C145.758 201.622 156.356 196.141 165.119 191.609C171.297 188.414 176.563 185.691 182.911 185.691C198.842 185.691 208.343 201.622 208.343 201.622C217.653 178.878 194.62 152.87 194.62 152.87Z" fill="white"/>
</g>
<defs>
<clipPath id="clip0_15192_145">
<rect width="245.777" height="245.68" fill="white" transform="translate(0.950684 0.567383)"/>
</clipPath>
</defs>
</svg>
